<?xml version="1.0" encoding="utf-8"?>
<!-- Generator: Adobe Illustrator 15.1.0, SVG Export Plug-In . SVG Version: 6.00 Build 0)  -->
<!DOCTYPE svg PUBLIC "-//W3C//DTD SVG 1.1//EN" "http://www.w3.org/Graphics/SVG/1.1/DTD/svg11.dtd">
<svg version="1.1" id="レイヤー_1" xmlns="http://www.w3.org/2000/svg" xmlns:xlink="http://www.w3.org/1999/xlink" x="0px"
	 y="0px" width="120px" height="120px" viewBox="0 0 120 120" enable-background="new 0 0 120 120" xml:space="preserve">
<g>
	
		<path fill="none" stroke="#FF69B4" stroke-width="1.8023" stroke-linecap="round" stroke-linejoin="round" stroke-miterlimit="10" d="
		M37.818,47.412c0,6.726,3.335,12.708,8.501,16.515l3.173,7.904h20.051l3.283-7.904c5.166-3.808,8.502-9.79,8.502-16.515
		c0-11.513-9.736-20.85-21.755-20.85C47.554,26.562,37.818,35.898,37.818,47.412z"/>
	
		<path fill="none" stroke="#FF69B4" stroke-width="1.8023" stroke-linecap="round" stroke-linejoin="round" stroke-miterlimit="10" d="
		M49.59,75.626c-0.998,0-1.812,0.817-1.812,1.812v1.813c0,0.997,0.814,1.813,1.812,1.813h19.941c0.998,0,1.812-0.816,1.812-1.813
		v-1.813c0-0.994-0.814-1.812-1.812-1.812H49.59z"/>
	
		<path fill="none" stroke="#FF69B4" stroke-width="1.8023" stroke-linecap="round" stroke-linejoin="round" stroke-miterlimit="10" d="
		M50.51,81.749c-0.999,0-1.814,0.813-1.814,1.813v1.521c0,0.996,0.816,1.812,1.814,1.812h18.129c0.998,0,1.814-0.816,1.814-1.812
		v-1.521c0-1-0.816-1.813-1.814-1.813H50.51z"/>
	
		<path fill="none" stroke="#FF69B4" stroke-width="1.8023" stroke-linecap="round" stroke-linejoin="round" stroke-miterlimit="10" d="
		M54.135,87.286c-0.996,0-1.812,0.817-1.812,1.813s1.131,1.56,1.812,1.928c0,0,2.379,1.076,5.439,1.076
		c3.398,0,5.523-1.104,5.523-1.104c1.133-0.597,1.728-0.903,1.728-1.899s-0.814-1.813-1.812-1.813H54.135z"/>
	
		<path fill="none" stroke="#FF69B4" stroke-width="1.8023" stroke-linecap="round" stroke-linejoin="round" stroke-miterlimit="10" d="
		M50.366,56.929c-2.629-2.349-4.321-5.712-4.321-9.516c0-7.058,5.725-12.78,12.788-12.78c3.931,0,7.401,1.802,9.748,4.591
		C59.118,40.242,51.632,47.551,50.366,56.929z"/>
</g>
</svg>
