<?xml version="1.0" encoding="utf-8"?>
<!-- Generator: Adobe Illustrator 15.1.0, SVG Export Plug-In . SVG Version: 6.00 Build 0)  -->
<!DOCTYPE svg PUBLIC "-//W3C//DTD SVG 1.1//EN" "http://www.w3.org/Graphics/SVG/1.1/DTD/svg11.dtd">
<svg version="1.1" id="レイヤー_1" xmlns="http://www.w3.org/2000/svg" xmlns:xlink="http://www.w3.org/1999/xlink" x="0px"
	 y="0px" width="120px" height="120px" viewBox="0 0 120 120" enable-background="new 0 0 120 120" xml:space="preserve">
<g>
	
		<path fill="none" stroke="#FF69B4" stroke-width="1.4173" stroke-linecap="round" stroke-linejoin="round" stroke-miterlimit="10" d="
		M83.277,41.962h-3.795v-3.795h-3.795v3.795H56.714c0-1.827-1.709-3.795-3.795-3.795h-7.59c-2.087,0-3.795,1.968-3.795,3.795h-3.795
		c-2.087,0-3.795,1.71-3.795,3.795v30.36c0,2.087,1.708,3.795,3.795,3.795h45.539c2.088,0,3.796-1.708,3.796-3.795v-30.36
		C87.073,43.672,85.365,41.962,83.277,41.962z"/>
	
		<circle fill="none" stroke="#FF69B4" stroke-width="1.4173" stroke-linecap="round" stroke-linejoin="round" stroke-miterlimit="10" cx="43.031" cy="51.998" r="2.763"/>
	
		<path fill="none" stroke="#FF69B4" stroke-width="1.4173" stroke-linecap="round" stroke-linejoin="round" stroke-miterlimit="10" d="
		M65.253,75.739c-7.986,0-14.484-6.5-14.484-14.485c0-7.985,6.498-14.479,14.484-14.479c7.985,0,14.481,6.495,14.481,14.479
		C79.734,69.239,73.238,75.739,65.253,75.739z"/>
	
		<path fill="none" stroke="#FF69B4" stroke-width="1.4173" stroke-linecap="round" stroke-linejoin="round" stroke-miterlimit="10" d="
		M65.253,71.079c-5.417,0-9.824-4.408-9.824-9.824s4.407-9.821,9.824-9.821c5.416,0,9.822,4.405,9.822,9.821
		S70.669,71.079,65.253,71.079z"/>
	
		<path fill="none" stroke="#FF69B4" stroke-width="1.4173" stroke-linecap="round" stroke-linejoin="round" stroke-miterlimit="10" d="
		M61.105,64.861c-1.16-1.037-1.905-2.521-1.905-4.197c0-3.113,2.524-5.637,5.641-5.637c1.732,0,3.265,0.795,4.298,2.025
		C64.966,57.5,61.665,60.725,61.105,64.861z"/>
</g>
</svg>
