<?xml version="1.0" encoding="utf-8"?>
<!-- Generator: Adobe Illustrator 15.1.0, SVG Export Plug-In . SVG Version: 6.00 Build 0)  -->
<!DOCTYPE svg PUBLIC "-//W3C//DTD SVG 1.1//EN" "http://www.w3.org/Graphics/SVG/1.1/DTD/svg11.dtd">
<svg version="1.1" id="レイヤー_1" xmlns="http://www.w3.org/2000/svg" xmlns:xlink="http://www.w3.org/1999/xlink" x="0px"
	 y="0px" width="120px" height="120px" viewBox="0 0 120 120" enable-background="new 0 0 120 120" xml:space="preserve">
<g>
	<g>
		<path fill="#FF69B4" d="M34.792,33.315c1.899,0,3.438,1.54,3.438,3.441c0,0.278-0.096,0.521-0.157,0.78l3.593,2.396l44.869,6
			l-4.718,22.005l-29.229,1.23l-2.333,7.373c1.118,0.85,1.936,2.071,2.228,3.501h17.994c0.604-2.534,2.867-4.426,5.587-4.426
			c3.176,0,5.756,2.578,5.756,5.754c0,3.177-2.58,5.756-5.756,5.756c-2.395,0-4.443-1.465-5.312-3.542H52.104
			c-0.912,2.081-2.985,3.542-5.405,3.542c-3.26,0-5.9-2.639-5.9-5.903c0-3.258,2.641-5.901,5.9-5.901
			c0.077,0,0.146,0.021,0.219,0.023l1.907-6.017l-2.125,0.089l-7.001-26.542l-4.221-2.816c-0.229,0.044-0.444,0.137-0.683,0.137
			c-1.899,0-3.439-1.54-3.439-3.438C31.354,34.855,32.894,33.315,34.792,33.315 M34.792,31.67c-2.805,0-5.085,2.282-5.085,5.087
			c0,2.803,2.282,5.084,5.085,5.084c0.126,0,0.245-0.01,0.354-0.024l3.118,2.08l6.842,25.941c0.179,0.677,0.761,1.157,1.442,1.219
			l-0.85,2.684c-3.691,0.492-6.547,3.658-6.547,7.482c0,4.161,3.386,7.548,7.547,7.548c2.62,0,5.024-1.359,6.392-3.542h16.657
			c1.331,2.183,3.703,3.542,6.316,3.542c4.08,0,7.4-3.32,7.4-7.403c0-4.08-3.32-7.398-7.4-7.398c-2.984,0-5.604,1.767-6.767,4.428
			H53.693c-0.359-0.875-0.884-1.679-1.549-2.37l1.666-5.262l28.078-1.182c0.749-0.031,1.382-0.565,1.539-1.299l4.717-22.005
			c0.097-0.448,0.002-0.917-0.265-1.292c-0.265-0.375-0.671-0.624-1.128-0.685l-44.486-5.949l-2.387-1.591c0-0.002,0-0.003,0-0.004
			C39.877,33.952,37.597,31.67,34.792,31.67L34.792,31.67z"/>
	</g>
	
		<circle fill="none" stroke="#FF69B4" stroke-width="1.6459" stroke-linecap="round" stroke-linejoin="round" stroke-miterlimit="10" cx="55.353" cy="61.699" r="3.41"/>
	
		<path fill="none" stroke="#FF69B4" stroke-width="1.6459" stroke-linecap="round" stroke-linejoin="round" stroke-miterlimit="10" d="
		M64.632,65.108c-1.878,0-3.409-1.525-3.409-3.41c0-1.88,1.529-3.409,3.409-3.409c1.885,0,3.413,1.528,3.413,3.409
		C68.045,63.581,66.517,65.108,64.632,65.108z"/>
	
		<circle fill="none" stroke="#FF69B4" stroke-width="1.6459" stroke-linecap="round" stroke-linejoin="round" stroke-miterlimit="10" cx="73.909" cy="61.699" r="3.41"/>
	
		<path fill="none" stroke="#FF69B4" stroke-width="1.6459" stroke-linecap="round" stroke-linejoin="round" stroke-miterlimit="10" d="
		M80.878,52.42c0,1.883-1.528,3.412-3.411,3.412c-1.878,0-3.409-1.527-3.409-3.412c0-1.88,1.527-3.41,3.409-3.41
		C79.35,49.01,80.878,50.54,80.878,52.42z"/>
	
		<path fill="none" stroke="#FF69B4" stroke-width="1.6459" stroke-linecap="round" stroke-linejoin="round" stroke-miterlimit="10" d="
		M71.6,52.42c0,1.883-1.529,3.412-3.411,3.412c-1.88,0-3.411-1.527-3.411-3.412c0-1.88,1.529-3.41,3.411-3.41S71.6,50.54,71.6,52.42
		z"/>
	
		<path fill="none" stroke="#FF69B4" stroke-width="1.6459" stroke-linecap="round" stroke-linejoin="round" stroke-miterlimit="10" d="
		M62.323,52.42c0,1.883-1.525,3.412-3.412,3.412c-1.879,0-3.408-1.527-3.408-3.412c0-1.88,1.528-3.41,3.408-3.41
		C60.795,49.01,62.323,50.54,62.323,52.42z"/>
	
		<path fill="none" stroke="#FF69B4" stroke-width="1.6459" stroke-linecap="round" stroke-linejoin="round" stroke-miterlimit="10" d="
		M53.041,52.42c0,1.883-1.528,3.412-3.409,3.412c-1.881,0-3.41-1.527-3.41-3.412c0-1.88,1.529-3.41,3.41-3.41
		C51.513,49.01,53.041,50.54,53.041,52.42z"/>
</g>
</svg>
