<?xml version="1.0" encoding="utf-8"?>
<!-- Generator: Adobe Illustrator 15.1.0, SVG Export Plug-In . SVG Version: 6.00 Build 0)  -->
<!DOCTYPE svg PUBLIC "-//W3C//DTD SVG 1.1//EN" "http://www.w3.org/Graphics/SVG/1.1/DTD/svg11.dtd">
<svg version="1.1" id="レイヤー_1" xmlns="http://www.w3.org/2000/svg" xmlns:xlink="http://www.w3.org/1999/xlink" x="0px"
	 y="0px" width="120px" height="120px" viewBox="0 0 120 120" enable-background="new 0 0 120 120" xml:space="preserve">
<path fill="none" stroke="#FF69B4" stroke-width="1.4173" stroke-linecap="round" stroke-linejoin="round" stroke-miterlimit="10" d="
	M60.254,48.131c7.997,0,14.5,6.503,14.5,14.501c0,7.995-6.503,14.5-14.5,14.5c-7.998,0-14.501-6.505-14.501-14.5
	C45.753,54.634,52.256,48.131,60.254,48.131 M60.254,40.881c-12.006,0-21.752,9.739-21.752,21.751
	c0,12.017,9.746,21.75,21.752,21.75c12.016,0,21.751-9.733,21.751-21.75C82.005,50.62,72.27,40.881,60.254,40.881L60.254,40.881z"/>
<path fill="none" stroke="#FF69B4" stroke-width="1.4173" stroke-linecap="round" stroke-linejoin="round" stroke-miterlimit="10" d="
	M66.127,65.175l-5.215-4.171v-4.817c0-1.385-0.811-2.5-1.812-2.5s-1.812,1.115-1.812,2.5v5.002c0,0.14,0.014,0.273,0.03,0.406
	c-0.098,0.622,0.123,1.276,0.65,1.698l5.896,4.715c0.336,0.267,0.732,0.396,1.129,0.396c0.535,0,1.062-0.234,1.42-0.682
	C67.033,66.941,66.909,65.802,66.127,65.175z"/>
<path fill="none" stroke="#FF69B4" stroke-width="1.4173" stroke-linecap="round" stroke-linejoin="round" stroke-miterlimit="10" d="
	M83.432,49.906c2.34-3.531,1.953-8.33-1.154-11.443c-3.106-3.109-7.914-3.494-11.443-1.154L83.432,49.906z"/>
<path fill="none" stroke="#FF69B4" stroke-width="1.4173" stroke-linecap="round" stroke-linejoin="round" stroke-miterlimit="10" d="
	M37.091,49.906c-2.339-3.531-1.952-8.33,1.155-11.443c3.107-3.109,7.913-3.494,11.444-1.154L37.091,49.906z"/>
</svg>
