<?xml version="1.0" encoding="utf-8"?>
<!-- Generator: Adobe Illustrator 15.1.0, SVG Export Plug-In . SVG Version: 6.00 Build 0)  -->
<!DOCTYPE svg PUBLIC "-//W3C//DTD SVG 1.1//EN" "http://www.w3.org/Graphics/SVG/1.1/DTD/svg11.dtd">
<svg version="1.1" id="レイヤー_1" xmlns="http://www.w3.org/2000/svg" xmlns:xlink="http://www.w3.org/1999/xlink" x="0px"
	 y="0px" width="120px" height="120px" viewBox="0 0 120 120" enable-background="new 0 0 120 120" xml:space="preserve">
<g>
	
		<path fill="none" stroke="#FF69B4" stroke-width="1.4173" stroke-linecap="round" stroke-linejoin="round" stroke-miterlimit="10" d="
		M77.168,28.397H44.089c-2.733,0-4.969,2.238-4.969,4.969v58.5c0,2.731,2.235,4.969,4.969,4.969h33.079
		c2.732,0,4.969-2.235,4.969-4.969v-58.5C82.137,30.635,79.9,28.397,77.168,28.397z"/>
	
		<path fill="none" stroke="#FF69B4" stroke-width="1.4173" stroke-linecap="round" stroke-linejoin="round" stroke-miterlimit="10" d="
		M57.628,33.333h6c0.554,0,1,0.448,1,1c0,0.553-0.446,1-1,1h-6c-0.553,0-1-0.447-1-1C56.628,33.782,57.076,33.333,57.628,33.333z"/>
	
		<circle fill="none" stroke="#FF69B4" stroke-width="1.4173" stroke-linecap="round" stroke-linejoin="round" stroke-miterlimit="10" cx="60.629" cy="90.077" r="3.448"/>
	
		<rect x="45.352" y="39.365" fill="none" stroke="#FF69B4" stroke-width="1.4173" stroke-linecap="round" stroke-linejoin="round" stroke-miterlimit="10" width="30.552" height="44"/>
</g>
</svg>
