<?xml version="1.0" encoding="utf-8"?>
<!-- Generator: Adobe Illustrator 15.1.0, SVG Export Plug-In . SVG Version: 6.00 Build 0)  -->
<!DOCTYPE svg PUBLIC "-//W3C//DTD SVG 1.1//EN" "http://www.w3.org/Graphics/SVG/1.1/DTD/svg11.dtd">
<svg version="1.1" id="レイヤー_1" xmlns="http://www.w3.org/2000/svg" xmlns:xlink="http://www.w3.org/1999/xlink" x="0px"
	 y="0px" width="120px" height="120px" viewBox="0 0 120 120" enable-background="new 0 0 120 120" xml:space="preserve">
<path fill="none" stroke="#FF69B4" stroke-width="1.4173" stroke-linecap="round" stroke-linejoin="round" stroke-miterlimit="10" d="
	M48.67,94.772h23.851l-2.385-4.77c-0.19-0.453-1.43-2.362-2.767-2.362H53.75c-1.312,0-2.479,1.909-2.695,2.362L48.67,94.772z"/>
<path fill="none" stroke="#FF69B4" stroke-width="1.4173" stroke-linecap="round" stroke-linejoin="round" stroke-miterlimit="10" d="
	M27.204,34.556c-2.622,0-4.771,2.147-4.771,4.77v39.497c0,2.622,2.147,4.771,4.771,4.771h66.785c2.622,0,4.771-2.148,4.771-4.771
	V39.326c0-2.623-2.147-4.77-4.771-4.77H27.204z"/>
<path fill="none" stroke="#FF69B4" stroke-width="1.4173" stroke-linecap="round" stroke-linejoin="round" stroke-miterlimit="10" d="
	M91.603,40.817c1.312,0,2.386,1.074,2.386,2.385v29.956c0,1.312-1.074,2.385-2.386,2.385H29.59c-1.312,0-2.386-1.072-2.386-2.385
	V43.202c0-1.312,1.073-2.385,2.386-2.385H91.603z"/>
</svg>
