<?xml version="1.0" encoding="utf-8"?>
<!-- Generator: Adobe Illustrator 15.1.0, SVG Export Plug-In . SVG Version: 6.00 Build 0)  -->
<!DOCTYPE svg PUBLIC "-//W3C//DTD SVG 1.1//EN" "http://www.w3.org/Graphics/SVG/1.1/DTD/svg11.dtd">
<svg version="1.1" id="レイヤー_1" xmlns="http://www.w3.org/2000/svg" xmlns:xlink="http://www.w3.org/1999/xlink" x="0px"
	 y="0px" width="120px" height="120px" viewBox="0 0 120 120" enable-background="new 0 0 120 120" xml:space="preserve">
<path fill="none" stroke="#FF69B4" stroke-width="1.5928" stroke-linecap="round" stroke-linejoin="round" stroke-miterlimit="10" d="
	M81.393,42.737v-7.703c0-1.102-0.9-2.002-2.003-2.002H40.857c-1.1,0-2,0.9-2,2.002v44.977c0,1.099,0.9,1.999,2,1.999H79.39
	c1.103,0,2.003-0.901,2.003-1.999v-6.384V42.737L81.393,42.737z"/>
<path fill="none" stroke="#FF69B4" stroke-width="1.4826" stroke-linecap="round" stroke-linejoin="round" stroke-miterlimit="10" d="
	M49.877,41.933c0,1.113-0.915,2.028-2.029,2.028h-1.522c-1.115,0-2.029-0.915-2.029-2.028v-1.97c0-1.113,0.914-2.028,2.029-2.028
	h1.522c1.115,0,2.029,0.916,2.029,2.028V41.933z"/>
<path fill="none" stroke="#FF69B4" stroke-width="1.4826" stroke-linecap="round" stroke-linejoin="round" stroke-miterlimit="10" d="
	M58.58,41.933c0,1.113-0.915,2.028-2.03,2.028h-1.517c-1.121,0-2.035-0.915-2.035-2.028v-1.97c0-1.113,0.916-2.028,2.035-2.028
	h1.517c1.115,0,2.03,0.916,2.03,2.028V41.933z"/>
<path fill="none" stroke="#FF69B4" stroke-width="1.4826" stroke-linecap="round" stroke-linejoin="round" stroke-miterlimit="10" d="
	M61.7,39.963c0-1.113,0.915-2.028,2.035-2.028h1.518c1.115,0,2.028,0.916,2.028,2.028v1.97c0,1.113-0.913,2.028-2.028,2.028h-1.518
	c-1.12,0-2.035-0.915-2.035-2.028V39.963z"/>
<path fill="none" stroke="#FF69B4" stroke-width="1.4826" stroke-linecap="round" stroke-linejoin="round" stroke-miterlimit="10" d="
	M70.404,41.933v-1.97c0-1.113,0.915-2.028,2.035-2.028h1.516c1.114,0,2.034,0.916,2.034,2.028v1.97c0,1.113-0.92,2.028-2.034,2.028
	h-1.516C71.319,43.962,70.404,43.047,70.404,41.933z"/>
<path fill="none" stroke="#FF69B4" stroke-width="1.4826" stroke-linecap="round" stroke-linejoin="round" stroke-miterlimit="10" d="
	M49.877,74.319c0,1.114-0.915,2.03-2.029,2.03h-1.522c-1.115,0-2.029-0.916-2.029-2.03v-1.968c0-1.113,0.914-2.028,2.029-2.028
	h1.522c1.115,0,2.029,0.915,2.029,2.028V74.319z"/>
<path fill="none" stroke="#FF69B4" stroke-width="1.4826" stroke-linecap="round" stroke-linejoin="round" stroke-miterlimit="10" d="
	M58.58,74.319c0,1.114-0.915,2.03-2.03,2.03h-1.517c-1.121,0-2.035-0.916-2.035-2.03v-1.968c0-1.113,0.916-2.028,2.035-2.028h1.517
	c1.115,0,2.03,0.915,2.03,2.028V74.319z"/>
<path fill="none" stroke="#FF69B4" stroke-width="1.4826" stroke-linecap="round" stroke-linejoin="round" stroke-miterlimit="10" d="
	M61.7,72.352c0-1.113,0.915-2.028,2.035-2.028h1.518c1.115,0,2.028,0.915,2.028,2.028v1.968c0,1.114-0.913,2.03-2.028,2.03h-1.518
	c-1.12,0-2.035-0.916-2.035-2.03V72.352z"/>
<path fill="none" stroke="#FF69B4" stroke-width="1.4826" stroke-linecap="round" stroke-linejoin="round" stroke-miterlimit="10" d="
	M70.404,74.319v-1.968c0-1.113,0.915-2.028,2.035-2.028h1.516c1.114,0,2.034,0.915,2.034,2.028v1.968c0,1.114-0.92,2.03-2.034,2.03
	h-1.516C71.319,76.352,70.404,75.436,70.404,74.319z"/>
<path fill="none" stroke="#FF69B4" stroke-width="1.4826" stroke-linecap="round" stroke-linejoin="round" stroke-miterlimit="10" d="
	M56.105,63.47c0,1.225,0.854,1.704,1.901,1.065l9.914-6.054c1.044-0.637,1.044-1.681,0-2.321l-9.914-6.054
	c-1.046-0.637-1.901-0.157-1.901,1.067V63.47z"/>
</svg>
