<?xml version="1.0" encoding="utf-8"?>
<!-- Generator: Adobe Illustrator 15.1.0, SVG Export Plug-In . SVG Version: 6.00 Build 0)  -->
<!DOCTYPE svg PUBLIC "-//W3C//DTD SVG 1.1//EN" "http://www.w3.org/Graphics/SVG/1.1/DTD/svg11.dtd">
<svg version="1.1" id="レイヤー_1" xmlns="http://www.w3.org/2000/svg" xmlns:xlink="http://www.w3.org/1999/xlink" x="0px"
	 y="0px" width="120px" height="120px" viewBox="0 0 120 120" enable-background="new 0 0 120 120" xml:space="preserve">
<g>
	
		<path fill="none" stroke="#FF69B4" stroke-width="1.3095" stroke-linecap="round" stroke-linejoin="round" stroke-miterlimit="10" d="
		M105.911,76.718v5.907c0,0-0.089,5.67-5.2,5.67H20.622c-5.347,0-5.197-5.67-5.197-5.67l0.255-5.678l8.25,0.007V37.263
		c0-5.67,5.387-5.729,5.387-5.729l63.1,0.247c4.961,0,5.224,5.249,5.224,5.249v39.69h8.271V76.718z"/>
	
		<path fill="none" stroke="#FF69B4" stroke-width="1.3095" stroke-linecap="round" stroke-linejoin="round" stroke-miterlimit="10" d="
		M93.85,80.776h5.67c0.785,0,1.418,0.633,1.418,1.416c0,0.782-0.633,1.419-1.418,1.419h-5.67c-0.783,0-1.417-0.637-1.417-1.419
		C92.433,81.409,93.066,80.776,93.85,80.776z"/>
	
		<path fill="none" stroke="#FF69B4" stroke-width="1.3095" stroke-linecap="round" stroke-linejoin="round" stroke-miterlimit="10" d="
		M51.355,80.764h19.846c1.564,0,2.835,0.741,2.835,1.656c0,0.912-1.271,1.653-2.835,1.653H51.355c-1.566,0-2.834-0.741-2.834-1.653
		C48.521,81.505,49.789,80.764,51.355,80.764z"/>
	
		<path fill="none" stroke="#FF69B4" stroke-width="1.3095" stroke-linecap="round" stroke-linejoin="round" stroke-miterlimit="10" d="
		M89.895,38.028c1.235,0,2.246,1.011,2.246,2.247v31.704c0,1.234-1.011,2.246-2.246,2.246H31.496c-1.235,0-2.247-1.012-2.247-2.246
		V40.275c0-1.236,1.01-2.247,2.247-2.247H89.895z"/>
</g>
</svg>
