<?xml version="1.0" encoding="utf-8"?>
<!-- Generator: Adobe Illustrator 15.1.0, SVG Export Plug-In . SVG Version: 6.00 Build 0)  -->
<!DOCTYPE svg PUBLIC "-//W3C//DTD SVG 1.1//EN" "http://www.w3.org/Graphics/SVG/1.1/DTD/svg11.dtd">
<svg version="1.1" id="レイヤー_1" xmlns="http://www.w3.org/2000/svg" xmlns:xlink="http://www.w3.org/1999/xlink" x="0px"
	 y="0px" width="120px" height="120px" viewBox="0 0 120 120" enable-background="new 0 0 120 120" xml:space="preserve">
<g>
	
		<path fill="none" stroke="#FF69B4" stroke-width="1.9113" stroke-linecap="round" stroke-linejoin="round" stroke-miterlimit="10" d="
		M36.785,53.686c-1.867,0-3.386,1.52-3.386,3.386v3.386c0,1.881,1.519,3.386,3.386,3.386h4.799c0.453,1.67,1.115,3.25,1.944,4.695
		l-3.386,3.398c-1.326,1.324-1.326,3.461,0,4.787l2.39,2.391c1.325,1.326,3.462,1.326,4.786,0l3.384-3.385
		c1.462,0.828,3.04,1.49,4.712,1.94v4.8c0,1.866,1.503,3.387,3.385,3.387h3.387c1.866,0,3.385-1.521,3.385-3.387v-4.813
		c1.656-0.437,3.22-1.099,4.68-1.927l3.4,3.385c1.324,1.326,3.461,1.326,4.787,0l2.391-2.391c1.326-1.326,1.326-3.463,0-4.787
		l-3.4-3.398c0.844-1.461,1.506-3.025,1.94-4.695h4.815c1.866,0,3.387-1.505,3.387-3.386v-3.386c0-1.866-1.521-3.386-3.387-3.386
		h-4.799c-0.453-1.655-1.115-3.236-1.958-4.68l3.4-3.4c1.325-1.324,1.325-3.459,0-4.784l-2.392-2.395
		c-1.324-1.322-3.461-1.322-4.785,0l-3.401,3.387c-1.444-0.828-3.022-1.491-4.679-1.941v-4.8c0-1.866-1.52-3.386-3.385-3.386h-3.388
		c-1.882,0-3.385,1.52-3.385,3.386v4.814c-1.672,0.436-3.234,1.099-4.695,1.927l-3.401-3.387c-1.324-1.322-3.461-1.322-4.786,0
		l-2.39,2.395c-1.326,1.325-1.326,3.46,0,4.784l3.386,3.4c-0.829,1.46-1.491,3.025-1.944,4.68H36.785z"/>
	
		<path fill="none" stroke="#FF69B4" stroke-width="1.9113" stroke-linecap="round" stroke-linejoin="round" stroke-miterlimit="10" d="
		M48.123,58.772c0-6.832,5.53-12.376,12.362-12.376c6.832,0,12.375,5.544,12.375,12.376c0,6.832-5.543,12.361-12.375,12.361
		C53.652,71.134,48.123,65.604,48.123,58.772z"/>
	
		<path fill="none" stroke="#FF69B4" stroke-width="1.9113" stroke-linecap="round" stroke-linejoin="round" stroke-miterlimit="10" d="
		M54.67,58.772c0,3.208,2.604,5.813,5.812,5.813c3.208,0,5.829-2.604,5.829-5.813c0-3.207-2.619-5.828-5.829-5.828
		C57.274,52.944,54.67,55.566,54.67,58.772z"/>
</g>
</svg>
